<mxfile host="app.diagrams.net" modified="2024-04-03T02:51:28.108Z" agent="Mozilla/5.0 (Macintosh; Intel Mac OS X 10_13_6) AppleWebKit/605.1.15 (KHTML, like Gecko) Version/13.1.2 Safari/605.1.15" version="24.2.1" etag="eMKAiUsKdVHG6vs8PCII" type="github">
  <diagram name="第 1 页" id="aEWU-xlAHQ3nTaPv-m8G">
    <mxGraphModel>
      <root>
        <mxCell id="0" />
        <mxCell id="1" parent="0" />
      </root>
    </mxGraphModel>
  </diagram>
</mxfile>
